<mxfile host="app.diagrams.net" modified="2023-03-19T17:30:00.520Z" agent="5.0 (Windows NT 10.0; Win64; x64) AppleWebKit/537.36 (KHTML, like Gecko) Chrome/111.0.0.0 Safari/537.36" etag="Y8p2Dahygos3J0soxhZy" version="21.0.8" type="github">
  <diagram id="C5RBs43oDa-KdzZeNtuy" name="Page-1">
    <mxGraphModel dx="1050" dy="549" grid="1" gridSize="10" guides="1" tooltips="1" connect="1" arrows="1" fold="1" page="1" pageScale="1" pageWidth="827" pageHeight="1169" math="0" shadow="0">
      <root>
        <mxCell id="WIyWlLk6GJQsqaUBKTNV-0" />
        <mxCell id="WIyWlLk6GJQsqaUBKTNV-1" parent="WIyWlLk6GJQsqaUBKTNV-0" />
        <mxCell id="Pf4eGX4tDjqapQGiIh9s-0" value="start" style="ellipse;whiteSpace=wrap;html=1;" vertex="1" parent="WIyWlLk6GJQsqaUBKTNV-1">
          <mxGeometry x="420" y="70" width="120" height="30" as="geometry" />
        </mxCell>
        <mxCell id="Pf4eGX4tDjqapQGiIh9s-12" style="edgeStyle=orthogonalEdgeStyle;rounded=0;orthogonalLoop=1;jettySize=auto;html=1;exitX=0.5;exitY=1;exitDx=0;exitDy=0;entryX=0.5;entryY=0;entryDx=0;entryDy=0;" edge="1" parent="WIyWlLk6GJQsqaUBKTNV-1" source="Pf4eGX4tDjqapQGiIh9s-6" target="Pf4eGX4tDjqapQGiIh9s-10">
          <mxGeometry relative="1" as="geometry" />
        </mxCell>
        <mxCell id="Pf4eGX4tDjqapQGiIh9s-27" style="edgeStyle=orthogonalEdgeStyle;rounded=0;orthogonalLoop=1;jettySize=auto;html=1;exitX=1;exitY=0.5;exitDx=0;exitDy=0;entryX=1;entryY=0.5;entryDx=0;entryDy=0;" edge="1" parent="WIyWlLk6GJQsqaUBKTNV-1" source="Pf4eGX4tDjqapQGiIh9s-6" target="Pf4eGX4tDjqapQGiIh9s-20">
          <mxGeometry relative="1" as="geometry">
            <Array as="points">
              <mxPoint x="640" y="370" />
              <mxPoint x="640" y="700" />
            </Array>
          </mxGeometry>
        </mxCell>
        <mxCell id="Pf4eGX4tDjqapQGiIh9s-6" value="num1%5==0&lt;br&gt;number =num1" style="rhombus;whiteSpace=wrap;html=1;" vertex="1" parent="WIyWlLk6GJQsqaUBKTNV-1">
          <mxGeometry x="407.5" y="330" width="145" height="80" as="geometry" />
        </mxCell>
        <mxCell id="Pf4eGX4tDjqapQGiIh9s-9" value="Yes" style="text;html=1;align=center;verticalAlign=middle;resizable=0;points=[];autosize=1;strokeColor=none;fillColor=none;" vertex="1" parent="WIyWlLk6GJQsqaUBKTNV-1">
          <mxGeometry x="570" y="340" width="40" height="30" as="geometry" />
        </mxCell>
        <mxCell id="Pf4eGX4tDjqapQGiIh9s-14" style="edgeStyle=orthogonalEdgeStyle;rounded=0;orthogonalLoop=1;jettySize=auto;html=1;exitX=0.5;exitY=1;exitDx=0;exitDy=0;entryX=0.5;entryY=0;entryDx=0;entryDy=0;" edge="1" parent="WIyWlLk6GJQsqaUBKTNV-1" source="Pf4eGX4tDjqapQGiIh9s-10" target="Pf4eGX4tDjqapQGiIh9s-11">
          <mxGeometry relative="1" as="geometry" />
        </mxCell>
        <mxCell id="Pf4eGX4tDjqapQGiIh9s-16" style="edgeStyle=orthogonalEdgeStyle;rounded=0;orthogonalLoop=1;jettySize=auto;html=1;" edge="1" parent="WIyWlLk6GJQsqaUBKTNV-1" source="Pf4eGX4tDjqapQGiIh9s-10">
          <mxGeometry relative="1" as="geometry">
            <mxPoint x="640" y="480" as="targetPoint" />
          </mxGeometry>
        </mxCell>
        <mxCell id="Pf4eGX4tDjqapQGiIh9s-10" value="num2%5==0&lt;br&gt;number =num2" style="rhombus;whiteSpace=wrap;html=1;" vertex="1" parent="WIyWlLk6GJQsqaUBKTNV-1">
          <mxGeometry x="407.5" y="440" width="145" height="80" as="geometry" />
        </mxCell>
        <mxCell id="Pf4eGX4tDjqapQGiIh9s-19" style="edgeStyle=orthogonalEdgeStyle;rounded=0;orthogonalLoop=1;jettySize=auto;html=1;entryX=0.5;entryY=0;entryDx=0;entryDy=0;" edge="1" parent="WIyWlLk6GJQsqaUBKTNV-1" source="Pf4eGX4tDjqapQGiIh9s-11" target="Pf4eGX4tDjqapQGiIh9s-20">
          <mxGeometry relative="1" as="geometry">
            <mxPoint x="640" y="590" as="targetPoint" />
          </mxGeometry>
        </mxCell>
        <mxCell id="Pf4eGX4tDjqapQGiIh9s-24" style="edgeStyle=orthogonalEdgeStyle;rounded=0;orthogonalLoop=1;jettySize=auto;html=1;exitX=0;exitY=0.5;exitDx=0;exitDy=0;entryX=1;entryY=0.5;entryDx=0;entryDy=0;" edge="1" parent="WIyWlLk6GJQsqaUBKTNV-1" source="Pf4eGX4tDjqapQGiIh9s-11" target="Pf4eGX4tDjqapQGiIh9s-23">
          <mxGeometry relative="1" as="geometry" />
        </mxCell>
        <mxCell id="Pf4eGX4tDjqapQGiIh9s-11" value="num3%5==0&lt;br&gt;number =num3" style="rhombus;whiteSpace=wrap;html=1;" vertex="1" parent="WIyWlLk6GJQsqaUBKTNV-1">
          <mxGeometry x="407.5" y="550" width="145" height="80" as="geometry" />
        </mxCell>
        <mxCell id="Pf4eGX4tDjqapQGiIh9s-13" value="No" style="text;html=1;align=center;verticalAlign=middle;resizable=0;points=[];autosize=1;strokeColor=none;fillColor=none;" vertex="1" parent="WIyWlLk6GJQsqaUBKTNV-1">
          <mxGeometry x="480" y="410" width="40" height="30" as="geometry" />
        </mxCell>
        <mxCell id="Pf4eGX4tDjqapQGiIh9s-15" value="No" style="text;html=1;align=center;verticalAlign=middle;resizable=0;points=[];autosize=1;strokeColor=none;fillColor=none;" vertex="1" parent="WIyWlLk6GJQsqaUBKTNV-1">
          <mxGeometry x="480" y="520" width="40" height="30" as="geometry" />
        </mxCell>
        <mxCell id="Pf4eGX4tDjqapQGiIh9s-17" value="Yes" style="text;html=1;align=center;verticalAlign=middle;resizable=0;points=[];autosize=1;strokeColor=none;fillColor=none;" vertex="1" parent="WIyWlLk6GJQsqaUBKTNV-1">
          <mxGeometry x="570" y="450" width="40" height="30" as="geometry" />
        </mxCell>
        <mxCell id="Pf4eGX4tDjqapQGiIh9s-18" value="Yes" style="text;html=1;align=center;verticalAlign=middle;resizable=0;points=[];autosize=1;strokeColor=none;fillColor=none;" vertex="1" parent="WIyWlLk6GJQsqaUBKTNV-1">
          <mxGeometry x="480" y="630" width="40" height="30" as="geometry" />
        </mxCell>
        <mxCell id="Pf4eGX4tDjqapQGiIh9s-34" value="" style="edgeStyle=orthogonalEdgeStyle;rounded=0;orthogonalLoop=1;jettySize=auto;html=1;" edge="1" parent="WIyWlLk6GJQsqaUBKTNV-1" source="Pf4eGX4tDjqapQGiIh9s-20" target="Pf4eGX4tDjqapQGiIh9s-33">
          <mxGeometry relative="1" as="geometry" />
        </mxCell>
        <mxCell id="Pf4eGX4tDjqapQGiIh9s-20" value="out =number **3" style="rounded=1;whiteSpace=wrap;html=1;" vertex="1" parent="WIyWlLk6GJQsqaUBKTNV-1">
          <mxGeometry x="420" y="670" width="120" height="60" as="geometry" />
        </mxCell>
        <mxCell id="Pf4eGX4tDjqapQGiIh9s-23" value="output&amp;nbsp;&lt;br&gt;non of them not&amp;nbsp;Multiple 5" style="shape=parallelogram;perimeter=parallelogramPerimeter;whiteSpace=wrap;html=1;fixedSize=1;" vertex="1" parent="WIyWlLk6GJQsqaUBKTNV-1">
          <mxGeometry x="230" y="560" width="120" height="60" as="geometry" />
        </mxCell>
        <mxCell id="Pf4eGX4tDjqapQGiIh9s-28" value="" style="edgeStyle=orthogonalEdgeStyle;rounded=0;orthogonalLoop=1;jettySize=auto;html=1;exitX=0.5;exitY=1;exitDx=0;exitDy=0;" edge="1" parent="WIyWlLk6GJQsqaUBKTNV-1" source="Pf4eGX4tDjqapQGiIh9s-0" target="Pf4eGX4tDjqapQGiIh9s-2">
          <mxGeometry relative="1" as="geometry">
            <mxPoint x="480" y="210" as="targetPoint" />
            <mxPoint x="480" y="100" as="sourcePoint" />
          </mxGeometry>
        </mxCell>
        <mxCell id="Pf4eGX4tDjqapQGiIh9s-31" value="" style="edgeStyle=orthogonalEdgeStyle;rounded=0;orthogonalLoop=1;jettySize=auto;html=1;" edge="1" parent="WIyWlLk6GJQsqaUBKTNV-1" source="Pf4eGX4tDjqapQGiIh9s-2" target="Pf4eGX4tDjqapQGiIh9s-30">
          <mxGeometry relative="1" as="geometry" />
        </mxCell>
        <mxCell id="Pf4eGX4tDjqapQGiIh9s-2" value="&lt;font style=&quot;font-size: 15px;&quot;&gt;input&lt;/font&gt;&lt;br&gt;&lt;span style=&quot;background-color: initial;&quot;&gt;num1,num2,num3&lt;/span&gt;" style="shape=parallelogram;perimeter=parallelogramPerimeter;whiteSpace=wrap;html=1;fixedSize=1;" vertex="1" parent="WIyWlLk6GJQsqaUBKTNV-1">
          <mxGeometry x="420" y="130" width="120" height="60" as="geometry" />
        </mxCell>
        <mxCell id="Pf4eGX4tDjqapQGiIh9s-32" style="edgeStyle=orthogonalEdgeStyle;rounded=0;orthogonalLoop=1;jettySize=auto;html=1;entryX=0.5;entryY=0;entryDx=0;entryDy=0;" edge="1" parent="WIyWlLk6GJQsqaUBKTNV-1" source="Pf4eGX4tDjqapQGiIh9s-30" target="Pf4eGX4tDjqapQGiIh9s-6">
          <mxGeometry relative="1" as="geometry" />
        </mxCell>
        <mxCell id="Pf4eGX4tDjqapQGiIh9s-30" value="number = 0" style="whiteSpace=wrap;html=1;" vertex="1" parent="WIyWlLk6GJQsqaUBKTNV-1">
          <mxGeometry x="420" y="240" width="120" height="40" as="geometry" />
        </mxCell>
        <mxCell id="Pf4eGX4tDjqapQGiIh9s-33" value="print(out)" style="shape=parallelogram;perimeter=parallelogramPerimeter;whiteSpace=wrap;html=1;fixedSize=1;rounded=1;" vertex="1" parent="WIyWlLk6GJQsqaUBKTNV-1">
          <mxGeometry x="420" y="810" width="120" height="60" as="geometry" />
        </mxCell>
      </root>
    </mxGraphModel>
  </diagram>
</mxfile>
